# xmcd
#
# Track frame offsets:
#	150
#	8313
#	29649
#	47448
#	74555
#	97921
#	117541
#	133294
#	148576
#	168431
#	184722
#	201170
#	213418
#	236945
#	264124
#	283355
#	289735
#	315135
#	340654
#
# Disc length: 4660 seconds
#
# Revision: 3
# Processed by: cddbd v1.5.2PL0 Copyright (c) Steve Scherf et al.
# Submitted via: audiograbber 1.83.01
#
DISCID=1c123213
DTITLE=Moonbootica (Moonbootica) - Moonbootica
DYEAR=2005
DGENRE=Electronic
TTITLE0=Big intro
TTITLE1=To the club
TTITLE2=Listen
TTITLE3=Mopedgang
TTITLE4=Pretty little angel (feat. Iamx)
TTITLE5=Unless you don't give a fuck
TTITLE6=Tame me (feat. Sam Leigh Brown)
TTITLE7=Runnin' (feat. Marc Deal)
TTITLE8=Hildegarde (feat. Jean Fauque)
TTITLE9=La selva beach
TTITLE10=The architect (feat. DJ Ultra)
TTITLE11=Don is back again
TTITLE12=Roll the dice
TTITLE13=Falling (feat. Client)
TTITLE14=Pimp of the year (feat. Jansen and Kowalski)
TTITLE15=Kid tamin
TTITLE16=Hotstuff
TTITLE17=June
TTITLE18=Sometimes
EXTD=
EXTT0=
EXTT1=
EXTT2=
EXTT3=
EXTT4=
EXTT5=
EXTT6=
EXTT7=
EXTT8=
EXTT9=
EXTT10=
EXTT11=
EXTT12=
EXTT13=
EXTT14=
EXTT15=
EXTT16=
EXTT17=
EXTT18=
PLAYORDER=
